<svg width="112" height="112" viewBox="0 0 112 112" fill="none" xmlns="http://www.w3.org/2000/svg">
<path d="M32.6667 37.3333C32.6667 24.4467 43.1134 14 56 14C68.8866 14 79.3333 24.4467 79.3333 37.3333C79.3333 50.22 68.8866 60.6667 56 60.6667C43.1134 60.6667 32.6667 50.22 32.6667 37.3333ZM56 51.3333C63.732 51.3333 70 45.0653 70 37.3333C70 29.6013 63.732 23.3333 56 23.3333C48.268 23.3333 42 29.6013 42 37.3333C42 45.0653 48.268 51.3333 56 51.3333Z" fill="#29183B"/>
<path d="M29.6014 76.268C22.6 83.2694 18.6667 92.7652 18.6667 102.667H28C28 95.2406 30.95 88.1187 36.201 82.8677C41.452 77.6167 48.5739 74.6667 56 74.6667C63.4261 74.6667 70.548 77.6167 75.799 82.8677C81.05 88.1187 84 95.2406 84 102.667H93.3333C93.3333 92.7652 89.4 83.2694 82.3987 76.268C75.3973 69.2667 65.9014 65.3333 56 65.3333C46.0986 65.3333 36.6027 69.2667 29.6014 76.268Z" fill="#29183B"/>
</svg>
