<svg width="200" height="200" viewBox="0 0 200 200" fill="none" xmlns="http://www.w3.org/2000/svg">
<rect width="200" height="200" rx="100" fill="#F7F7FC"/>
<path d="M76.6667 81.3333C76.6667 68.4467 87.1134 58 100 58C112.887 58 123.333 68.4467 123.333 81.3333C123.333 94.22 112.887 104.667 100 104.667C87.1134 104.667 76.6667 94.22 76.6667 81.3333ZM100 95.3333C107.732 95.3333 114 89.0653 114 81.3333C114 73.6013 107.732 67.3333 100 67.3333C92.268 67.3333 86 73.6013 86 81.3333C86 89.0653 92.268 95.3333 100 95.3333Z" fill="#29183B"/>
<path d="M73.6014 120.268C66.6 127.269 62.6667 136.765 62.6667 146.667H72C72 139.241 74.95 132.119 80.201 126.868C85.452 121.617 92.5739 118.667 100 118.667C107.426 118.667 114.548 121.617 119.799 126.868C125.05 132.119 128 139.241 128 146.667H137.333C137.333 136.765 133.4 127.269 126.399 120.268C119.397 113.267 109.901 109.333 100 109.333C90.0986 109.333 80.6027 113.267 73.6014 120.268Z" fill="#29183B"/>
</svg>
