<svg width="73" height="40" viewBox="0 0 73 40" fill="none" xmlns="http://www.w3.org/2000/svg">
<rect x="1.49999" y="0.833333" width="70" height="38.3333" rx="19.1667" stroke="#9A41FE" stroke-width="1.66667"/>
<path d="M36.5016 27.5342C34.4516 27.5342 34.21 27.5233 33.41 27.4883C32.7861 27.4678 32.1703 27.341 31.5891 27.1133C30.5836 26.722 29.7884 25.9265 29.3975 24.9208C29.1786 24.3375 29.0605 23.7212 29.0483 23.0983C29.0016 22.3 29.0016 22.0383 29.0016 20.0042C29.0016 17.9483 29.0125 17.7083 29.0483 16.9125C29.0608 16.2904 29.1788 15.675 29.3975 15.0925C29.788 14.0854 30.5844 13.2893 31.5916 12.8992C32.1739 12.6793 32.7894 12.5609 33.4116 12.5492C34.2075 12.5042 34.4691 12.5042 36.5016 12.5042C38.5683 12.5042 38.8058 12.515 39.5933 12.5492C40.2171 12.561 40.8344 12.6794 41.4183 12.8992C42.4252 13.2897 43.2215 14.0857 43.6125 15.0925C43.8351 15.6835 43.9538 16.3085 43.9633 16.94C44.01 17.7383 44.01 17.9992 44.01 20.0325C44.01 22.0658 43.9983 22.3325 43.9633 23.1217C43.9509 23.7452 43.8326 24.362 43.6133 24.9458C43.2214 25.9522 42.425 26.748 41.4183 27.1392C40.8352 27.3576 40.2192 27.4757 39.5966 27.4883C38.8008 27.5342 38.54 27.5342 36.5016 27.5342ZM36.4733 13.8233C34.435 13.8233 34.2233 13.8333 33.4275 13.8692C32.9525 13.8754 32.482 13.9631 32.0366 14.1283C31.3789 14.38 30.8585 14.8983 30.6041 15.555C30.4377 16.0052 30.35 16.4808 30.345 16.9608C30.3008 17.7683 30.3008 17.98 30.3008 20.0042C30.3008 22.0042 30.3083 22.2467 30.345 23.0492C30.3524 23.5243 30.4401 23.9948 30.6041 24.4408C30.8589 25.0971 31.3792 25.615 32.0366 25.8667C32.4817 26.033 32.9524 26.1207 33.4275 26.1258C34.2341 26.1725 34.4466 26.1725 36.4733 26.1725C38.5175 26.1725 38.7291 26.1625 39.5183 26.1258C39.9936 26.12 40.4644 26.0324 40.91 25.8667C41.5637 25.6128 42.0808 25.0961 42.335 24.4425C42.5011 23.9919 42.5888 23.5161 42.5941 23.0358H42.6033C42.6391 22.2392 42.6391 22.0267 42.6391 19.9908C42.6391 17.955 42.63 17.7408 42.5941 16.945C42.5867 16.4704 42.4991 16.0004 42.335 15.555C42.0813 14.9005 41.5642 14.3827 40.91 14.1283C40.4645 13.9623 39.9937 13.8746 39.5183 13.8692C38.7125 13.8233 38.5016 13.8233 36.4733 13.8233ZM36.5016 23.8533C34.9433 23.8543 33.5378 22.9164 32.9407 21.477C32.3436 20.0376 32.6724 18.3803 33.7738 17.2779C34.8753 16.1755 36.5324 15.8452 37.9723 16.4411C39.4122 17.037 40.3513 18.4416 40.3516 20C40.3494 22.1259 38.6275 23.8492 36.5016 23.8533ZM36.5016 17.4983C35.1209 17.4983 34.0016 18.6176 34.0016 19.9983C34.0016 21.379 35.1209 22.4983 36.5016 22.4983C37.8824 22.4983 39.0016 21.379 39.0016 19.9983C38.9984 18.6189 37.881 17.5015 36.5016 17.4983ZM40.5016 16.9042C40.0062 16.9023 39.6057 16.4996 39.6066 16.0042C39.6076 15.5087 40.0095 15.1075 40.505 15.1075C41.0005 15.1075 41.4024 15.5087 41.4033 16.0042C41.4035 16.2432 41.3086 16.4725 41.1394 16.6414C40.9702 16.8103 40.7407 16.9048 40.5016 16.9042Z" fill="#9A41FE"/>
</svg>
