<svg width="72" height="40" viewBox="0 0 72 40" fill="none" xmlns="http://www.w3.org/2000/svg">
<rect x="0.833333" y="0.833333" width="70" height="38.3333" rx="19.1667" stroke="#9A41FE" stroke-width="1.66667"/>
<path d="M42.4958 15.5733C43.2429 15.1267 43.8018 14.4235 44.0683 13.595C43.3664 14.0115 42.5984 14.3049 41.7975 14.4625C40.6871 13.2879 38.9279 13.0021 37.5028 13.7647C36.0777 14.5273 35.3396 16.1495 35.7008 17.725C32.8255 17.5806 30.1466 16.2224 28.3308 13.9883C27.3832 15.6228 27.8675 17.7123 29.4375 18.7633C28.8698 18.7451 28.3146 18.5913 27.8183 18.315C27.8183 18.33 27.8183 18.345 27.8183 18.36C27.8187 20.0626 29.0186 21.5292 30.6875 21.8666C30.1609 22.0099 29.6085 22.031 29.0725 21.9283C29.5418 23.3844 30.8838 24.3819 32.4133 24.4116C31.1465 25.4059 29.5821 25.9451 27.9717 25.9425C27.6862 25.9429 27.401 25.9265 27.1175 25.8933C28.7528 26.9442 30.6561 27.5019 32.6 27.5C35.3044 27.5185 37.9033 26.4524 39.8156 24.54C41.7278 22.6276 42.7938 20.0285 42.775 17.3241C42.775 17.1691 42.7714 17.015 42.7642 16.8616C43.4645 16.3555 44.069 15.7284 44.5492 15.01C43.8967 15.2992 43.2046 15.4891 42.4958 15.5733Z" fill="#9A41FE"/>
</svg>
