<svg width="72" height="40" viewBox="0 0 72 40" fill="none" xmlns="http://www.w3.org/2000/svg">
<rect x="0.833333" y="0.833333" width="70" height="38.3333" rx="19.1667" stroke="#9A41FE" stroke-width="1.66667"/>
<path d="M27.5017 20.0016C27.5026 24.1011 30.4837 27.5916 34.5325 28.2341V22.41H32.4183V20.0016H34.535V18.1683C34.4404 17.2996 34.7371 16.4338 35.3447 15.8057C35.9523 15.1777 36.8078 14.8525 37.6792 14.9183C38.3046 14.9284 38.9285 14.9841 39.5458 15.085V17.1341H38.4925C38.1299 17.0866 37.7653 17.2064 37.5015 17.4597C37.2377 17.713 37.1031 18.0724 37.1358 18.4366V20.0016H39.445L39.0758 22.4108H37.1358V28.2341C41.5146 27.5421 44.5851 23.5431 44.1229 19.1342C43.6608 14.7253 39.8277 11.4499 35.4007 11.6809C30.9736 11.912 27.5024 15.5685 27.5017 20.0016Z" fill="#9A41FE"/>
</svg>
