<svg width="80" height="60" viewBox="0 0 80 60" fill="none" xmlns="http://www.w3.org/2000/svg">
<g clip-path="url(#clip0_12_160)">
<path d="M0 0H80V60H0V0Z" fill="#00ABC2"/>
<path d="M43.2249 33.276C47.6852 33.276 51.3009 29.6603 51.3009 25.2C51.3009 20.7397 47.6852 17.124 43.2249 17.124C38.7647 17.124 35.1489 20.7397 35.1489 25.2C35.1489 29.6603 38.7647 33.276 43.2249 33.276Z" fill="#FFEC2D"/>
<path d="M43.2251 16.026C43.7051 16.02 43.8851 15.72 43.8851 15.36C43.8851 14.88 43.2251 12.594 43.2251 12.594C43.2251 12.594 42.5651 14.88 42.5651 15.36C42.5651 15.72 42.7451 16.026 43.2251 16.026Z" fill="#FFEC2D"/>
<path d="M52.3991 25.2C52.4051 25.68 52.7051 25.86 53.0651 25.86C53.5451 25.86 55.8311 25.2 55.8311 25.2C55.8311 25.2 53.5451 24.54 53.0651 24.54C52.7051 24.54 52.3991 24.72 52.3991 25.2Z" fill="#FFEC2D"/>
<path d="M43.225 34.374C42.745 34.38 42.565 34.68 42.565 35.04C42.565 35.52 43.225 37.806 43.225 37.806C43.225 37.806 43.885 35.52 43.885 35.04C43.885 34.68 43.705 34.374 43.225 34.374Z" fill="#FFEC2D"/>
<path d="M34.051 25.2C34.045 24.72 33.745 24.54 33.385 24.54C32.905 24.54 30.619 25.2 30.619 25.2C30.619 25.2 32.905 25.86 33.385 25.86C33.745 25.86 34.051 25.68 34.051 25.2Z" fill="#FFEC2D"/>
<path d="M46.7357 16.7243C47.1815 16.9025 47.4626 16.6942 47.6003 16.3616C47.784 15.9181 48.0491 13.5536 48.0491 13.5536C48.0491 13.5536 46.5645 15.413 46.3808 15.8565C46.2431 16.1891 46.2923 16.5406 46.7357 16.7243Z" fill="#FFEC2D"/>
<path d="M51.7007 28.7107C51.5226 29.1565 51.7308 29.4376 52.0634 29.5754C52.5069 29.7591 54.8715 30.0241 54.8715 30.0241C54.8715 30.0241 53.012 28.5395 52.5686 28.3558C52.236 28.2181 51.8844 28.2673 51.7007 28.7107Z" fill="#FFEC2D"/>
<path d="M39.7142 33.6757C39.2685 33.4975 38.9874 33.7058 38.8496 34.0384C38.6659 34.4819 38.4009 36.8464 38.4009 36.8464C38.4009 36.8464 39.8854 34.987 40.0691 34.5435C40.2069 34.211 40.1577 33.8594 39.7142 33.6757Z" fill="#FFEC2D"/>
<path d="M34.7494 21.6893C34.9275 21.2435 34.7192 20.9624 34.3866 20.8246C33.9432 20.6409 31.5786 20.3759 31.5786 20.3759C31.5786 20.3759 33.438 21.8605 33.8815 22.0442C34.2141 22.1819 34.5657 22.1327 34.7494 21.6893Z" fill="#FFEC2D"/>
<path d="M49.712 18.713C50.0557 19.0482 50.3951 18.9633 50.6496 18.7088C50.9891 18.3693 52.1388 16.2862 52.1388 16.2862C52.1388 16.2862 50.0557 17.436 49.7163 17.7754C49.4617 18.0299 49.3726 18.3736 49.712 18.713Z" fill="#FFEC2D"/>
<path d="M49.712 31.687C49.3768 32.0307 49.4617 32.3701 49.7162 32.6246C50.0556 32.964 52.1388 34.1138 52.1388 34.1138C52.1388 34.1138 50.989 32.0307 50.6496 31.6912C50.3951 31.4367 50.0514 31.3476 49.712 31.687Z" fill="#FFEC2D"/>
<path d="M36.7379 31.687C36.3943 31.3518 36.0549 31.4367 35.8003 31.6912C35.4609 32.0307 34.3111 34.1138 34.3111 34.1138C34.3111 34.1138 36.3943 32.964 36.7337 32.6246C36.9882 32.3701 37.0773 32.0264 36.7379 31.687Z" fill="#FFEC2D"/>
<path d="M36.738 18.713C37.0731 18.3693 36.9883 18.0299 36.7337 17.7754C36.3943 17.436 34.3112 16.2862 34.3112 16.2862C34.3112 16.2862 35.4609 18.3693 35.8003 18.7088C36.0549 18.9633 36.3986 19.0524 36.738 18.713Z" fill="#FFEC2D"/>
<path d="M51.7007 21.6893C51.8899 22.1304 52.236 22.1819 52.5686 22.0442C53.012 21.8605 54.8715 20.3759 54.8715 20.3759C54.8715 20.3759 52.5069 20.6409 52.0634 20.8246C51.7308 20.9624 51.517 21.2458 51.7007 21.6893Z" fill="#FFEC2D"/>
<path d="M46.7358 33.6757C46.2946 33.8649 46.2431 34.2109 46.3809 34.5435C46.5646 34.987 48.0492 36.8464 48.0492 36.8464C48.0492 36.8464 47.7841 34.4819 47.6004 34.0384C47.4627 33.7058 47.1793 33.492 46.7358 33.6757Z" fill="#FFEC2D"/>
<path d="M34.7494 28.7107C34.5601 28.2696 34.2141 28.2181 33.8815 28.3558C33.438 28.5395 31.5786 30.0241 31.5786 30.0241C31.5786 30.0241 33.9432 29.7591 34.3866 29.5754C34.7192 29.4376 34.933 29.1542 34.7494 28.7107Z" fill="#FFEC2D"/>
<path d="M39.7143 16.7243C40.1554 16.5351 40.2069 16.1891 40.0692 15.8565C39.8855 15.413 38.4009 13.5536 38.4009 13.5536C38.4009 13.5536 38.666 15.9181 38.8496 16.3616C38.9874 16.6942 39.2708 16.908 39.7143 16.7243Z" fill="#FFEC2D"/>
<path d="M45.0226 16.2038C45.4944 16.292 45.7297 16.0331 45.8003 15.6801C45.8943 15.2094 45.6951 12.8384 45.6951 12.8384C45.6951 12.8384 44.5999 14.9507 44.5059 15.4214C44.4353 15.7744 44.5519 16.1098 45.0226 16.2038Z" fill="#FFEC2D"/>
<path d="M52.221 26.9976C52.1329 27.4695 52.3918 27.7048 52.7448 27.7753C53.2155 27.8694 55.5865 27.6701 55.5865 27.6701C55.5865 27.6701 53.4741 26.575 53.0034 26.4809C52.6504 26.4104 52.3151 26.5269 52.221 26.9976Z" fill="#FFEC2D"/>
<path d="M41.4273 34.1962C40.9554 34.108 40.7201 34.3669 40.6496 34.7199C40.5555 35.1906 40.7548 37.5616 40.7548 37.5616C40.7548 37.5616 41.8499 35.4493 41.944 34.9786C42.0145 34.6256 41.898 34.2902 41.4273 34.1962Z" fill="#FFEC2D"/>
<path d="M34.2288 23.4024C34.317 22.9305 34.0581 22.6952 33.705 22.6247C33.2343 22.5306 30.8633 22.7299 30.8633 22.7299C30.8633 22.7299 32.9757 23.825 33.4464 23.9191C33.7994 23.9896 34.1347 23.8731 34.2288 23.4024Z" fill="#FFEC2D"/>
<path d="M48.3283 17.5765C48.7305 17.8386 49.047 17.6894 49.2473 17.3903C49.5143 16.9914 50.2375 14.7246 50.2375 14.7246C50.2375 14.7246 48.4174 16.2571 48.1504 16.656C47.9501 16.9551 47.9295 17.3095 48.3283 17.5765Z" fill="#FFEC2D"/>
<path d="M50.8484 30.3035C50.5864 30.7057 50.7355 31.0221 51.0347 31.2224C51.4336 31.4894 53.7003 32.2127 53.7003 32.2127C53.7003 32.2127 52.1679 30.3925 51.769 30.1255C51.4698 29.9252 51.1154 29.9046 50.8484 30.3035Z" fill="#FFEC2D"/>
<path d="M38.1215 32.8235C37.7193 32.5614 37.4028 32.7106 37.2026 33.0097C36.9355 33.4086 36.2123 35.6754 36.2123 35.6754C36.2123 35.6754 38.0324 34.1429 38.2995 33.744C38.4997 33.4449 38.5204 33.0905 38.1215 32.8235Z" fill="#FFEC2D"/>
<path d="M35.6015 20.0965C35.8636 19.6943 35.7144 19.3779 35.4153 19.1776C35.0164 18.9106 32.7496 18.1873 32.7496 18.1873C32.7496 18.1873 34.2821 20.0075 34.6809 20.2745C34.9801 20.4748 35.3345 20.4954 35.6015 20.0965Z" fill="#FFEC2D"/>
<path d="M50.8572 20.1099C51.1286 20.5059 51.478 20.4892 51.7775 20.2894C52.1769 20.0231 53.7125 18.2056 53.7125 18.2056C53.7125 18.2056 51.4445 18.9249 51.0451 19.1912C50.7456 19.391 50.5909 19.7105 50.8572 20.1099Z" fill="#FFEC2D"/>
<path d="M48.315 32.8323C47.919 33.1037 47.9357 33.4531 48.1354 33.7526C48.4018 34.152 50.2192 35.6876 50.2192 35.6876C50.2192 35.6876 49.4999 33.4196 49.2336 33.0202C49.0339 32.7207 48.7143 32.566 48.315 32.8323Z" fill="#FFEC2D"/>
<path d="M35.5926 30.2901C35.3213 29.8941 34.9718 29.9108 34.6723 30.1106C34.273 30.3769 32.7373 32.1944 32.7373 32.1944C32.7373 32.1944 35.0054 31.4751 35.4047 31.2088C35.7042 31.009 35.8589 30.6895 35.5926 30.2901Z" fill="#FFEC2D"/>
<path d="M38.1347 17.5677C38.5307 17.2963 38.514 16.9469 38.3143 16.6474C38.048 16.248 36.2305 14.7124 36.2305 14.7124C36.2305 14.7124 36.9498 16.9804 37.2161 17.3798C37.4158 17.6793 37.7354 17.834 38.1347 17.5677Z" fill="#FFEC2D"/>
<path d="M52.2242 23.4181C52.3233 23.8878 52.6526 24.0061 53.0057 23.9362C53.4766 23.8429 55.5908 22.7515 55.5908 22.7515C55.5908 22.7515 53.2202 22.5481 52.7493 22.6413C52.3962 22.7112 52.131 22.9472 52.2242 23.4181Z" fill="#FFEC2D"/>
<path d="M45.0069 34.1993C44.5372 34.2984 44.4189 34.6277 44.4888 34.9808C44.582 35.4517 45.6735 37.5659 45.6735 37.5659C45.6735 37.5659 45.8769 35.1953 45.7837 34.7244C45.7137 34.3713 45.4777 34.1061 45.0069 34.1993Z" fill="#FFEC2D"/>
<path d="M34.2256 26.9819C34.1265 26.5122 33.7973 26.3939 33.4441 26.4638C32.9733 26.5571 30.859 27.6485 30.859 27.6485C30.859 27.6485 33.2296 27.8519 33.7005 27.7587C34.0536 27.6888 34.3189 27.4528 34.2256 26.9819Z" fill="#FFEC2D"/>
<path d="M41.4431 16.2007C41.9128 16.1016 42.0311 15.7724 41.9611 15.4192C41.8679 14.9483 40.7765 12.8341 40.7765 12.8341C40.7765 12.8341 40.573 15.2047 40.6663 15.6756C40.7362 16.0287 40.9722 16.294 41.4431 16.2007Z" fill="#FFEC2D"/>
<path d="M42.948 39.3C42.738 39.678 42.612 40.116 42.348 40.458C41.532 39.72 40.356 39.738 39.324 39.696C38.472 39.648 37.548 39.57 36.888 38.964C36.198 38.394 35.628 37.662 34.86 37.2C34.1383 37.0446 33.46 36.7311 32.874 36.282C31.662 35.292 30.966 33.822 29.778 32.802C29.556 32.586 29.286 32.412 29.034 32.226C28.794 32.286 28.902 32.802 28.608 32.538C28.446 32.418 28.044 32.412 28.008 32.574C28.368 33.054 28.734 33.594 28.788 34.206C28.536 34.23 28.098 34.152 27.978 34.242C28.3077 34.7366 28.7221 35.1692 29.202 35.52C28.974 35.556 28.524 35.538 28.434 35.628C28.8832 36.0582 29.4378 36.3624 30.042 36.51C30.162 36.678 29.856 37.002 30.12 37.146C30.27 37.206 30.774 37.314 30.426 37.488C30.186 37.644 30.276 38.022 30.582 38.01C30.774 38.112 31.206 38.13 31.242 38.31C31.068 38.478 30.54 38.682 30.99 38.85C31.4142 39.0905 31.8889 39.2282 32.376 39.252C32.136 39.456 31.836 39.57 31.59 39.762C32.7 40.416 33.93 40.842 35.154 41.262C35.634 41.418 36.132 41.568 36.636 41.664C35.172 41.58 33.756 41.148 32.424 40.554C31.734 40.254 31.044 39.96 30.336 39.702C30.642 39.54 31.002 39.498 31.326 39.36C30.654 39.228 29.928 39.18 29.346 38.82C29.43 38.652 29.766 38.646 29.958 38.562C30.318 38.478 30.534 38.382 30.036 38.346C29.532 38.208 28.956 38.268 28.506 37.968C28.536 37.788 29.004 37.848 29.19 37.77C29.43 37.728 29.694 37.692 29.886 37.53C29.106 37.212 28.086 37.44 27.474 36.75C27.336 36.486 27.912 36.696 28.074 36.654C28.494 36.654 28.944 36.786 29.346 36.618C28.206 36.12 26.988 35.658 26.124 34.734C26.028 34.584 25.74 34.176 25.974 34.128C26.646 34.218 27.132 34.95 27.858 34.836C27.954 34.71 27.438 34.5 27.306 34.314C26.2206 33.4419 25.2739 32.4102 24.498 31.254C24.45 30.852 25.068 30.792 25.23 31.098C26.034 31.878 26.76 32.778 27.762 33.306C28.122 33.48 27.558 33.102 27.486 32.964C26.533 31.9075 25.7092 30.7413 25.032 29.49C24.912 29.262 24.726 28.848 25.074 28.728C25.416 28.554 25.764 28.788 25.938 29.088C26.616 29.946 27.12 30.966 27.966 31.68C27.246 30.282 26.472 28.8 26.454 27.192C26.472 26.88 26.49 26.412 26.916 26.418C27.276 26.364 27.216 26.82 27.336 27.036C27.684 28.224 27.834 29.508 28.536 30.552C28.386 29.676 28.152 28.77 28.308 27.876C28.344 27.576 28.668 27.492 28.89 27.672C29.064 28.092 29.1 28.626 29.256 29.082C30.1911 32.188 32.16 34.8809 34.836 36.714C37.0272 38.2134 39.5839 39.0905 42.234 39.252C42.474 39.276 42.714 39.282 42.948 39.294M51.132 44.76C50.7 45.024 50.364 44.556 50.004 44.418C49.74 44.562 49.716 45.03 49.476 45.258C49.188 45.588 48.828 45.162 48.858 44.838C48.51 45.132 48.336 45.798 47.778 45.702C47.508 45.486 47.31 45.03 47.106 45.552C46.944 45.804 46.506 46.164 46.272 45.78C46.2 45.444 46.032 45.048 45.852 45.582C45.72 45.966 45.312 46.242 44.928 46.074C44.712 45.9 45.096 45.252 44.826 45.294C44.418 45.57 44.178 46.236 43.608 46.182C43.386 45.942 43.746 45.516 43.5 45.24C43.218 45.606 42.9 46.146 42.402 46.182C42.162 45.99 42.414 45.432 42.258 45.354C41.754 45.654 41.214 46.2 40.578 46.032C40.824 45.072 41.868 44.742 42.738 44.67C44.244 44.484 45.828 44.826 47.28 44.28C47.514 44.136 48.078 43.938 47.88 43.608C47.7 43.344 48.342 43.446 48.402 43.14C48.366 42.756 48.702 42.81 49.026 42.78C50.49 42.714 51.936 43.02 53.394 43.074C53.502 43.782 52.716 44.28 52.074 44.064C51.774 44.112 51.324 43.368 51.414 43.908C51.354 44.196 51.39 44.568 51.132 44.76ZM38.688 43.308C39.024 43.614 39.264 43.248 39.582 43.11C40.6204 42.7034 41.5961 42.152 42.48 41.472C43.032 41.016 43.512 40.422 44.256 40.272C45.708 39.834 47.25 39.888 48.702 39.48C49.812 37.968 51.69 37.422 53.268 36.552C53.622 36.444 53.76 36.15 53.868 35.832C54.468 34.878 55.29 34.038 56.262 33.462C56.7208 33.191 57.2614 33.0931 57.786 33.186C57.7137 33.7981 57.4216 34.3631 56.964 34.776C57.318 34.77 57.624 34.548 57.972 34.56C58.092 35.196 57.408 35.526 57.042 35.922C57.246 35.97 58.026 36.03 57.6 36.234C57.06 36.606 56.442 36.864 55.944 37.302C56.406 37.386 56.46 37.482 55.992 37.65C55.734 37.818 55.248 37.878 55.2 38.214C55.548 38.43 55.044 38.634 54.846 38.706C54.474 38.796 54.078 38.958 54.576 39.246C54.39 39.528 53.982 39.588 53.652 39.558C53.754 39.882 53.898 40.242 53.484 40.386C52.5554 41.1201 51.4429 41.585 50.268 41.73C51.738 41.838 53.256 41.568 54.51 40.77C54.678 40.572 55.548 40.356 55.062 40.194C54.834 40.098 54.342 39.99 54.306 39.816C54.99 39.396 55.848 39.546 56.58 39.3C56.598 39.06 56.022 39.126 55.806 39.072C55.296 39.03 55.326 38.898 55.818 38.85C56.442 38.682 57.15 38.652 57.678 38.25C57.252 38.046 56.712 38.22 56.256 38.058C57.03 37.722 57.942 37.686 58.638 37.176C58.956 36.822 58.23 36.936 58.02 36.942C57.594 37.02 57.396 36.81 57.882 36.636C58.716 36.018 59.766 35.622 60.354 34.734C60.492 34.536 60.678 33.936 60.234 34.146C59.658 34.344 59.148 34.992 58.482 34.794C59.79 33.78 61.026 32.634 61.92 31.236C61.968 30.828 61.332 30.786 61.17 31.104C60.33 31.908 59.574 32.862 58.5 33.372C59.5123 32.3598 60.3914 31.2226 61.116 29.988C61.278 29.628 61.704 29.19 61.476 28.788C61.098 28.476 60.63 28.764 60.438 29.13C59.784 29.982 59.292 30.972 58.458 31.668C59.184 30.27 59.946 28.776 59.958 27.168C59.958 26.832 59.898 26.34 59.442 26.406C59.082 26.466 59.172 27.006 59.022 27.276C58.698 28.38 58.542 29.574 57.882 30.534C58.032 29.64 58.29 28.704 58.092 27.804C57.996 27.396 57.342 27.57 57.432 27.972C56.652 31.926 53.994 35.382 50.532 37.38C48.942 38.28 47.172 38.856 45.36 39.12C44.88 39.222 44.352 39.162 43.89 39.33C42.762 40.188 42.084 41.634 40.662 42.084C40.02 42.402 39.192 42.468 38.736 43.056C38.6991 43.1346 38.6825 43.2213 38.688 43.308ZM41.79 42.69C41.574 42.702 41.364 42.726 41.154 42.792C40.872 42.834 40.602 42.93 40.326 42.972L40.212 42.996L40.026 43.014C40.0502 43.1146 40.0502 43.2194 40.026 43.32C40.0065 43.3653 39.9779 43.4062 39.942 43.44C39.906 43.488 39.864 43.524 39.81 43.548C39.7612 43.572 39.7082 43.5862 39.654 43.59C39.6 43.59 39.546 43.59 39.492 43.566C39.438 43.548 39.39 43.518 39.342 43.476L39.174 43.506H39.018L38.85 43.446C38.7958 43.4248 38.7435 43.3987 38.694 43.368C38.49 43.488 38.262 43.602 38.136 43.812C38.0774 43.9081 38.0444 44.0175 38.04 44.13C38.028 44.274 38.064 44.418 38.124 44.55C38.148 44.586 38.166 44.412 38.232 44.388C38.346 44.292 38.49 44.226 38.634 44.19C38.754 44.13 38.736 44.19 38.688 44.286C38.676 44.34 38.61 44.526 38.7 44.43C39.1149 44.275 39.5532 44.1918 39.996 44.184C40.632 44.118 41.268 44.1 41.904 44.094L43.704 44.13C43.992 44.142 44.28 44.202 44.562 44.154C44.628 44.136 44.736 44.136 44.778 44.094C44.646 44.022 44.496 44.016 44.358 43.998H43.212C42.894 43.968 42.564 43.962 42.264 43.842C42.18 43.812 42.108 43.734 42.03 43.818C41.9158 43.8588 41.7968 43.885 41.676 43.896C41.466 43.908 41.256 43.866 41.064 43.788C41.202 43.596 41.37 43.428 41.526 43.248L41.154 43.17C41.376 43.02 41.574 42.846 41.79 42.69Z" fill="#FFEC2D"/>
<path d="M39.6001 43.398C39.6796 43.398 39.7441 43.3335 39.7441 43.254C39.7441 43.1745 39.6796 43.11 39.6001 43.11C39.5205 43.11 39.4561 43.1745 39.4561 43.254C39.4561 43.3335 39.5205 43.398 39.6001 43.398Z" fill="#FFEC2D"/>
<path d="M39.588 43.29C39.6211 43.29 39.648 43.2631 39.648 43.23C39.648 43.1969 39.6211 43.17 39.588 43.17C39.5548 43.17 39.528 43.1969 39.528 43.23C39.528 43.2631 39.5548 43.29 39.588 43.29Z" fill="#FFEC2D" stroke="#FFEC2D" stroke-width="0.024"/>
<path d="M7.20002 4.38C7.20002 4.38 6.62402 3.888 6.42602 4.134C6.11402 4.524 7.39802 6.474 7.39802 7.158C7.39802 8.286 6.64202 8.592 5.71802 8.748C5.09402 8.856 4.08002 8.706 4.08002 8.706C4.27202 8.448 4.39802 8.37 4.71602 8.352C4.35602 8.172 3.99602 7.764 3.99602 7.134C3.99602 6.168 4.39202 5.766 4.39202 4.674C4.39202 4.08 3.90002 3.3 3.90002 3.3C4.77602 3.39 5.20802 4.2 4.96202 4.848C5.02955 4.86143 5.09934 4.85806 5.16525 4.83818C5.23117 4.81831 5.29119 4.78253 5.34002 4.734C5.40002 4.914 5.30402 5.124 5.16602 5.304C5.27402 5.364 5.35802 5.328 5.52602 5.292C5.51402 5.472 5.40602 5.676 5.13002 5.862C5.92202 5.658 6.40202 6.204 6.40202 6.78C6.40202 7.218 6.10202 7.53 5.80202 7.53C5.70602 7.53 5.56202 7.488 5.48402 7.428C5.42402 7.548 5.46002 7.71 5.51402 7.83C5.29802 7.77 5.15402 7.638 5.25602 7.368C5.08802 7.356 4.95602 7.296 4.86602 7.188C4.95602 7.068 5.09402 7.008 5.25602 7.008C5.13602 6.756 5.27402 6.618 5.47202 6.504C5.47202 6.504 5.34602 7.008 5.66402 7.008C5.80802 7.008 5.94002 6.966 5.94002 6.75C5.94002 6.564 5.77802 6.306 5.40002 6.324C5.02802 6.342 4.72202 6.582 4.72202 7.182C4.72202 7.734 5.17202 8.01 5.76002 8.022C6.28802 8.046 6.69002 7.758 6.69002 7.212C6.69002 6.48 5.64002 4.824 5.64002 4.176C5.64002 3.69 6.07202 3.414 6.50402 3.414C7.05602 3.414 7.52402 3.966 7.52402 3.966L7.20002 4.374V4.38Z" fill="#FFEC2D"/>
<path d="M7.31998 17.526C7.31998 18.744 6.22798 19.368 5.36998 19.368C4.21798 19.368 3.59998 18.678 3.59998 17.772C3.59998 17.262 3.69598 16.938 3.92998 16.452L6.58198 10.95C6.67805 10.7186 6.71913 10.468 6.70198 10.218C6.70198 9.726 6.22198 9.324 5.72398 9.318C5.26798 9.3 4.76398 9.738 4.76398 10.236C4.76398 10.842 5.08198 11.112 5.40598 11.112C5.80198 11.112 5.95798 10.95 5.95798 10.668C5.95798 10.476 5.86798 10.392 5.72998 10.392C5.38798 10.392 5.48998 10.848 5.48998 10.848C5.44482 10.8396 5.40206 10.8214 5.36475 10.7946C5.32745 10.7679 5.29651 10.7332 5.27416 10.6931C5.25181 10.6529 5.23859 10.6084 5.23545 10.5626C5.2323 10.5167 5.23931 10.4708 5.25598 10.428C5.12755 10.3992 5.01182 10.3298 4.92598 10.23C5.01598 10.14 5.12398 10.074 5.25598 10.05C5.17798 9.786 5.28598 9.66 5.51398 9.6C5.47295 9.69019 5.46242 9.79129 5.48398 9.888C5.84398 9.78 6.40198 9.948 6.40198 10.572C6.40198 11.196 5.96998 11.718 5.15998 11.592C5.35198 11.682 5.44798 11.868 5.47198 12.078C5.32198 12.018 5.15998 12.018 5.15998 12.018C5.25598 12.18 5.38798 12.318 5.38198 12.654C5.23198 12.582 5.08798 12.456 4.90198 12.534C5.20198 13.134 4.82998 13.95 3.88198 14.142C4.22998 13.734 4.39798 13.302 4.39798 12.864C4.39798 11.454 4.00798 11.22 4.00798 10.236C4.01415 10.0078 4.0745 9.78432 4.18403 9.58402C4.29357 9.38372 4.44917 9.21233 4.63798 9.084V9.102C4.52187 9.07815 4.41212 9.03001 4.31595 8.96072C4.21978 8.89144 4.13936 8.80258 4.07998 8.7C4.74837 8.51578 5.45494 8.52202 6.11998 8.718C6.34242 8.74947 6.55496 8.83051 6.74189 8.95513C6.92882 9.07975 7.08537 9.24477 7.19998 9.438C7.31977 9.71135 7.38161 10.0066 7.38161 10.305C7.38161 10.6034 7.31977 10.8987 7.19998 11.172C6.82198 11.952 5.05798 15.708 4.50598 16.884C4.38598 17.136 4.31998 17.4 4.31998 17.688C4.31998 18.408 4.97998 18.66 5.35198 18.66C5.80198 18.66 6.26398 18.318 6.26398 17.892C6.26398 17.622 6.11398 17.454 5.90398 17.454C5.39398 17.454 5.42398 17.886 5.52598 18.162C5.20798 18.018 5.02798 17.766 5.07598 17.502C4.87909 17.4689 4.70041 17.3668 4.57198 17.214C4.69198 17.058 4.84798 16.938 5.07598 16.932C4.97398 16.518 5.25598 16.344 5.52598 16.248C5.44198 16.548 5.38198 16.902 5.90398 16.902C6.28198 16.902 6.57598 16.962 6.74998 17.214L6.79198 15.594C6.81598 15.108 6.14398 15.114 5.71198 15.264C5.87398 14.706 6.20398 14.4 6.97198 14.478C6.85431 14.4328 6.75389 14.3516 6.68496 14.2461C6.61603 14.1405 6.5821 14.0159 6.58798 13.89C6.58798 13.434 6.95998 12.93 7.19998 12.78L7.31998 17.52V17.526Z" fill="#FFEC2D"/>
<path d="M7.31998 21.174C7.31998 19.956 6.22798 19.332 5.36998 19.332C4.21798 19.332 3.59998 20.022 3.59998 20.928C3.59998 21.438 3.69598 21.762 3.92998 22.248L6.58198 27.75C6.67805 27.9814 6.71913 28.232 6.70198 28.482C6.70198 28.974 6.22198 29.376 5.72398 29.382C5.26798 29.4 4.76398 28.962 4.76398 28.464C4.76398 27.858 5.08198 27.588 5.40598 27.588C5.80198 27.588 5.95798 27.75 5.95798 28.032C5.95798 28.224 5.86798 28.308 5.72998 28.308C5.38798 28.308 5.48998 27.852 5.48998 27.852C5.44482 27.8604 5.40206 27.8786 5.36475 27.9054C5.32745 27.9321 5.29651 27.9668 5.27416 28.0069C5.25181 28.0471 5.23859 28.0916 5.23545 28.1374C5.2323 28.1833 5.23931 28.2292 5.25598 28.272C5.12755 28.3008 5.01182 28.3702 4.92598 28.47C5.01598 28.56 5.12398 28.626 5.25598 28.65C5.17798 28.914 5.28598 29.04 5.51398 29.1C5.47295 29.0098 5.46242 28.9087 5.48398 28.812C5.84398 28.92 6.40198 28.752 6.40198 28.128C6.40198 27.504 5.96998 26.982 5.15998 27.108C5.35198 27.018 5.44798 26.832 5.47198 26.622C5.32198 26.682 5.15998 26.682 5.15998 26.682C5.25598 26.52 5.38798 26.382 5.38198 26.046C5.23198 26.118 5.08798 26.244 4.90198 26.166C5.20198 25.566 4.82998 24.75 3.88198 24.558C4.22998 24.966 4.39798 25.398 4.39798 25.836C4.39798 27.246 4.00798 27.48 4.00798 28.464C4.01415 28.6922 4.0745 28.9157 4.18403 29.116C4.29357 29.3163 4.44917 29.4877 4.63798 29.616V29.598C4.52187 29.6218 4.41212 29.67 4.31595 29.7393C4.21978 29.8086 4.13936 29.8974 4.07998 30C4.74837 30.1842 5.45494 30.178 6.11998 29.982C6.34242 29.9505 6.55496 29.8695 6.74189 29.7449C6.92882 29.6202 7.08537 29.4552 7.19998 29.262C7.31977 28.9887 7.38161 28.6934 7.38161 28.395C7.38161 28.0966 7.31977 27.8013 7.19998 27.528C6.82198 26.748 5.05798 22.992 4.50598 21.816C4.38598 21.564 4.31998 21.3 4.31998 21.012C4.31998 20.292 4.97998 20.04 5.35198 20.04C5.80198 20.04 6.26398 20.382 6.26398 20.808C6.26398 21.078 6.11398 21.246 5.90398 21.246C5.39398 21.246 5.42398 20.814 5.52598 20.538C5.20798 20.682 5.02798 20.934 5.07598 21.198C4.87909 21.2311 4.70041 21.3332 4.57198 21.486C4.69198 21.642 4.84798 21.762 5.07598 21.768C4.97398 22.182 5.25598 22.356 5.52598 22.452C5.44198 22.152 5.38198 21.798 5.90398 21.798C6.28198 21.798 6.57598 21.738 6.74998 21.486L6.79198 23.106C6.81598 23.592 6.14398 23.586 5.71198 23.436C5.87398 23.994 6.20398 24.3 6.97198 24.222C6.85431 24.2672 6.75389 24.3484 6.68496 24.454C6.61603 24.5595 6.5821 24.6841 6.58798 24.81C6.58798 25.266 6.95998 25.77 7.19998 25.92L7.31998 21.18V21.174Z" fill="#FFEC2D"/>
<path d="M7.19988 4.38C7.19988 4.38 7.77588 3.888 7.97388 4.134C8.28588 4.524 7.00188 6.474 7.00188 7.158C7.00188 8.286 7.75788 8.592 8.68188 8.748C9.30588 8.856 10.3199 8.706 10.3199 8.706C10.1279 8.448 10.0019 8.37 9.68388 8.352C10.0439 8.172 10.4039 7.764 10.4039 7.134C10.4039 6.168 10.0079 5.766 10.0079 4.674C10.0079 4.08 10.4999 3.3 10.4999 3.3C9.62388 3.39 9.19188 4.2 9.43788 4.848C9.37035 4.86143 9.30056 4.85806 9.23465 4.83818C9.16873 4.81831 9.10871 4.78253 9.05988 4.734C8.99988 4.914 9.09588 5.124 9.23388 5.304C9.12588 5.364 9.04188 5.328 8.87388 5.292C8.88588 5.472 8.99388 5.676 9.26988 5.862C8.47788 5.658 7.99788 6.204 7.99788 6.78C7.99788 7.218 8.29788 7.53 8.59788 7.53C8.69388 7.53 8.83788 7.488 8.91588 7.428C8.97588 7.548 8.93988 7.71 8.88588 7.83C9.10188 7.77 9.24588 7.638 9.14388 7.368C9.31188 7.356 9.44388 7.296 9.53388 7.188C9.44388 7.068 9.30588 7.008 9.14388 7.008C9.26388 6.756 9.12588 6.618 8.92788 6.504C8.92788 6.504 9.05388 7.008 8.73588 7.008C8.59188 7.008 8.45988 6.966 8.45988 6.75C8.45988 6.564 8.62188 6.306 8.99988 6.324C9.37188 6.342 9.67788 6.582 9.67788 7.182C9.67788 7.734 9.22788 8.01 8.63988 8.022C8.11188 8.046 7.70988 7.758 7.70988 7.212C7.70988 6.48 8.75988 4.824 8.75988 4.176C8.75988 3.69 8.32788 3.414 7.89588 3.414C7.34388 3.414 6.87588 3.966 6.87588 3.966L7.19988 4.374V4.38Z" fill="#FFEC2D"/>
<path d="M7.07993 17.526C7.07993 18.744 8.17193 19.368 9.02993 19.368C10.1819 19.368 10.7999 18.678 10.7999 17.772C10.7999 17.262 10.7039 16.938 10.4699 16.452L7.81793 10.95C7.72185 10.7186 7.68077 10.468 7.69793 10.218C7.69793 9.726 8.17793 9.324 8.67593 9.318C9.13193 9.3 9.63593 9.738 9.63593 10.236C9.63593 10.842 9.31793 11.112 8.99393 11.112C8.59793 11.112 8.44193 10.95 8.44193 10.668C8.44193 10.476 8.53193 10.392 8.66993 10.392C9.01193 10.392 8.90993 10.848 8.90993 10.848C8.95509 10.8396 8.99784 10.8214 9.03515 10.7946C9.07246 10.7679 9.10339 10.7332 9.12574 10.6931C9.14809 10.6529 9.16131 10.6084 9.16446 10.5626C9.1676 10.5167 9.16059 10.4708 9.14393 10.428C9.27236 10.3992 9.38808 10.3298 9.47393 10.23C9.38393 10.14 9.27593 10.074 9.14393 10.05C9.22193 9.786 9.11393 9.66 8.88593 9.6C8.92695 9.69019 8.93748 9.79129 8.91593 9.888C8.55593 9.78 7.99793 9.948 7.99793 10.572C7.99793 11.196 8.42993 11.718 9.23993 11.592C9.04793 11.682 8.95193 11.868 8.92793 12.078C9.07793 12.018 9.23993 12.018 9.23993 12.018C9.14393 12.18 9.01193 12.318 9.01793 12.654C9.16793 12.582 9.31193 12.456 9.49793 12.534C9.19793 13.134 9.56993 13.95 10.5179 14.142C10.1699 13.734 10.0019 13.302 10.0019 12.864C10.0019 11.454 10.3919 11.22 10.3919 10.236C10.3858 10.0078 10.3254 9.78432 10.2159 9.58402C10.1063 9.38372 9.95074 9.21233 9.76193 9.084V9.102C9.87803 9.07815 9.98778 9.03001 10.084 8.96072C10.1801 8.89144 10.2605 8.80258 10.3199 8.7C9.65154 8.51578 8.94496 8.52202 8.27993 8.718C8.05748 8.74947 7.84494 8.83051 7.65801 8.95513C7.47108 9.07975 7.31454 9.24477 7.19993 9.438C7.08013 9.71135 7.01829 10.0066 7.01829 10.305C7.01829 10.6034 7.08013 10.8987 7.19993 11.172C7.57793 11.952 9.34193 15.708 9.89393 16.884C10.0139 17.136 10.0799 17.4 10.0799 17.688C10.0799 18.408 9.41993 18.66 9.04793 18.66C8.59793 18.66 8.13593 18.318 8.13593 17.892C8.13593 17.622 8.28593 17.454 8.49593 17.454C9.00593 17.454 8.97593 17.886 8.87393 18.162C9.19193 18.018 9.37193 17.766 9.32393 17.502C9.52081 17.4689 9.69949 17.3668 9.82793 17.214C9.70793 17.058 9.55193 16.938 9.32393 16.932C9.42593 16.518 9.14393 16.344 8.87393 16.248C8.95793 16.548 9.01793 16.902 8.49593 16.902C8.11793 16.902 7.82393 16.962 7.64993 17.214L7.60793 15.594C7.58393 15.108 8.25593 15.114 8.68793 15.264C8.52593 14.706 8.19593 14.4 7.42793 14.478C7.54559 14.4328 7.64601 14.3516 7.71494 14.2461C7.78387 14.1405 7.8178 14.0159 7.81193 13.89C7.81193 13.434 7.43993 12.93 7.19993 12.78L7.07993 17.52V17.526Z" fill="#FFEC2D"/>
<path d="M7.07993 21.174C7.07993 19.956 8.17193 19.332 9.02993 19.332C10.1819 19.332 10.7999 20.022 10.7999 20.928C10.7999 21.438 10.7039 21.762 10.4699 22.248L7.81793 27.75C7.72185 27.9814 7.68077 28.232 7.69793 28.482C7.69793 28.974 8.17793 29.376 8.67593 29.382C9.13193 29.4 9.63593 28.962 9.63593 28.464C9.63593 27.858 9.31793 27.588 8.99393 27.588C8.59793 27.588 8.44193 27.75 8.44193 28.032C8.44193 28.224 8.53193 28.308 8.66993 28.308C9.01193 28.308 8.90993 27.852 8.90993 27.852C8.95509 27.8604 8.99784 27.8786 9.03515 27.9054C9.07246 27.9321 9.10339 27.9668 9.12574 28.0069C9.14809 28.0471 9.16131 28.0916 9.16446 28.1374C9.1676 28.1833 9.16059 28.2292 9.14393 28.272C9.27236 28.3008 9.38808 28.3702 9.47393 28.47C9.38393 28.56 9.27593 28.626 9.14393 28.65C9.22193 28.914 9.11393 29.04 8.88593 29.1C8.92695 29.0098 8.93748 28.9087 8.91593 28.812C8.55593 28.92 7.99793 28.752 7.99793 28.128C7.99793 27.504 8.42993 26.982 9.23993 27.108C9.04793 27.018 8.95193 26.832 8.92793 26.622C9.07793 26.682 9.23993 26.682 9.23993 26.682C9.14393 26.52 9.01193 26.382 9.01793 26.046C9.16793 26.118 9.31193 26.244 9.49793 26.166C9.19793 25.566 9.56993 24.75 10.5179 24.558C10.1699 24.966 10.0019 25.398 10.0019 25.836C10.0019 27.246 10.3919 27.48 10.3919 28.464C10.3858 28.6922 10.3254 28.9157 10.2159 29.116C10.1063 29.3163 9.95074 29.4877 9.76193 29.616V29.598C9.87803 29.6218 9.98778 29.67 10.084 29.7393C10.1801 29.8086 10.2605 29.8974 10.3199 30C9.65154 30.1842 8.94496 30.178 8.27993 29.982C8.05748 29.9505 7.84494 29.8695 7.65801 29.7449C7.47108 29.6202 7.31454 29.4552 7.19993 29.262C7.08013 28.9887 7.01829 28.6934 7.01829 28.395C7.01829 28.0966 7.08013 27.8013 7.19993 27.528C7.57793 26.748 9.34193 22.992 9.89393 21.816C10.0139 21.564 10.0799 21.3 10.0799 21.012C10.0799 20.292 9.41993 20.04 9.04793 20.04C8.59793 20.04 8.13593 20.382 8.13593 20.808C8.13593 21.078 8.28593 21.246 8.49593 21.246C9.00593 21.246 8.97593 20.814 8.87393 20.538C9.19193 20.682 9.37193 20.934 9.32393 21.198C9.52081 21.2311 9.69949 21.3332 9.82793 21.486C9.70793 21.642 9.55193 21.762 9.32393 21.768C9.42593 22.182 9.14393 22.356 8.87393 22.452C8.95793 22.152 9.01793 21.798 8.49593 21.798C8.11793 21.798 7.82393 21.738 7.64993 21.486L7.60793 23.106C7.58393 23.592 8.25593 23.586 8.68793 23.436C8.52593 23.994 8.19593 24.3 7.42793 24.222C7.54559 24.2672 7.64601 24.3484 7.71494 24.454C7.78387 24.5595 7.8178 24.6841 7.81193 24.81C7.81193 25.266 7.43993 25.77 7.19993 25.92L7.07993 21.18V21.174Z" fill="#FFEC2D"/>
<path d="M7.20002 55.62C7.20002 55.62 6.62402 56.112 6.42602 55.866C6.11402 55.476 7.39802 53.526 7.39802 52.842C7.39802 51.714 6.64202 51.408 5.71802 51.252C5.09402 51.144 4.08002 51.294 4.08002 51.294C4.27202 51.552 4.39802 51.63 4.71602 51.648C4.35602 51.828 3.99602 52.236 3.99602 52.866C3.99602 53.832 4.39202 54.234 4.39202 55.326C4.39202 55.92 3.90002 56.7 3.90002 56.7C4.77602 56.61 5.20802 55.8 4.96202 55.152C5.02955 55.1386 5.09934 55.1419 5.16525 55.1618C5.23117 55.1817 5.29119 55.2175 5.34002 55.266C5.40002 55.086 5.30402 54.876 5.16602 54.696C5.27402 54.636 5.35802 54.672 5.52602 54.708C5.51402 54.528 5.40602 54.324 5.13002 54.138C5.92202 54.342 6.40202 53.796 6.40202 53.22C6.40202 52.782 6.10202 52.47 5.80202 52.47C5.70602 52.47 5.56202 52.512 5.48402 52.572C5.42402 52.452 5.46002 52.29 5.51402 52.17C5.29802 52.23 5.15402 52.362 5.25602 52.632C5.08802 52.644 4.95602 52.704 4.86602 52.812C4.95602 52.932 5.09402 52.992 5.25602 52.992C5.13602 53.244 5.27402 53.382 5.47202 53.496C5.47202 53.496 5.34602 52.992 5.66402 52.992C5.80802 52.992 5.94002 53.034 5.94002 53.25C5.94002 53.436 5.77802 53.694 5.40002 53.676C5.02802 53.658 4.72202 53.418 4.72202 52.818C4.72202 52.266 5.17202 51.99 5.76002 51.978C6.28802 51.954 6.69002 52.242 6.69002 52.788C6.69002 53.52 5.64002 55.176 5.64002 55.824C5.64002 56.31 6.07202 56.586 6.50402 56.586C7.05602 56.586 7.52402 56.034 7.52402 56.034L7.20002 55.626V55.62Z" fill="#FFEC2D"/>
<path d="M7.31998 42.474C7.31998 41.256 6.22798 40.632 5.36998 40.632C4.21798 40.632 3.59998 41.322 3.59998 42.228C3.59998 42.738 3.69598 43.062 3.92998 43.548L6.58198 49.05C6.67805 49.2814 6.71913 49.532 6.70198 49.782C6.70198 50.274 6.22198 50.676 5.72398 50.682C5.26798 50.7 4.76398 50.262 4.76398 49.764C4.76398 49.158 5.08198 48.888 5.40598 48.888C5.80198 48.888 5.95798 49.05 5.95798 49.332C5.95798 49.524 5.86798 49.608 5.72998 49.608C5.38798 49.608 5.48998 49.152 5.48998 49.152C5.44482 49.1604 5.40206 49.1786 5.36475 49.2054C5.32745 49.2321 5.29651 49.2668 5.27416 49.3069C5.25181 49.3471 5.23859 49.3916 5.23545 49.4374C5.2323 49.4833 5.23931 49.5292 5.25598 49.572C5.12755 49.6008 5.01182 49.6702 4.92598 49.77C5.01598 49.86 5.12398 49.926 5.25598 49.95C5.17798 50.214 5.28598 50.34 5.51398 50.4C5.47295 50.3098 5.46242 50.2087 5.48398 50.112C5.84398 50.22 6.40198 50.052 6.40198 49.428C6.40198 48.804 5.96998 48.282 5.15998 48.408C5.35198 48.318 5.44798 48.132 5.47198 47.922C5.32198 47.982 5.15998 47.982 5.15998 47.982C5.25598 47.82 5.38798 47.682 5.38198 47.346C5.23198 47.418 5.08798 47.544 4.90198 47.466C5.20198 46.866 4.82998 46.05 3.88198 45.858C4.22998 46.266 4.39798 46.698 4.39798 47.136C4.39798 48.546 4.00798 48.78 4.00798 49.764C4.01415 49.9922 4.0745 50.2157 4.18403 50.416C4.29357 50.6163 4.44917 50.7877 4.63798 50.916V50.898C4.52187 50.9218 4.41212 50.97 4.31595 51.0393C4.21978 51.1086 4.13936 51.1974 4.07998 51.3C4.74837 51.4842 5.45494 51.478 6.11998 51.282C6.34242 51.2505 6.55496 51.1695 6.74189 51.0449C6.92882 50.9203 7.08537 50.7552 7.19998 50.562C7.31977 50.2887 7.38161 49.9934 7.38161 49.695C7.38161 49.3966 7.31977 49.1014 7.19998 48.828C6.82198 48.048 5.05798 44.292 4.50598 43.116C4.38598 42.864 4.31998 42.6 4.31998 42.312C4.31998 41.592 4.97998 41.34 5.35198 41.34C5.80198 41.34 6.26398 41.682 6.26398 42.108C6.26398 42.378 6.11398 42.546 5.90398 42.546C5.39398 42.546 5.42398 42.114 5.52598 41.838C5.20798 41.982 5.02798 42.234 5.07598 42.498C4.87909 42.5311 4.70041 42.6332 4.57198 42.786C4.69198 42.942 4.84798 43.062 5.07598 43.068C4.97398 43.482 5.25598 43.656 5.52598 43.752C5.44198 43.452 5.38198 43.098 5.90398 43.098C6.28198 43.098 6.57598 43.038 6.74998 42.786L6.79198 44.406C6.81598 44.892 6.14398 44.886 5.71198 44.736C5.87398 45.294 6.20398 45.6 6.97198 45.522C6.85431 45.5672 6.75389 45.6484 6.68496 45.754C6.61603 45.8595 6.5821 45.9841 6.58798 46.11C6.58798 46.566 6.95998 47.07 7.19998 47.22L7.31998 42.48V42.474Z" fill="#FFEC2D"/>
<path d="M7.31998 38.826C7.31998 40.044 6.22798 40.668 5.36998 40.668C4.21798 40.668 3.59998 39.978 3.59998 39.072C3.59998 38.562 3.69598 38.238 3.92998 37.752L6.58198 32.25C6.67805 32.0186 6.71913 31.768 6.70198 31.518C6.70198 31.026 6.22198 30.624 5.72398 30.618C5.26798 30.6 4.76398 31.038 4.76398 31.536C4.76398 32.142 5.08198 32.412 5.40598 32.412C5.80198 32.412 5.95798 32.25 5.95798 31.968C5.95798 31.776 5.86798 31.692 5.72998 31.692C5.38798 31.692 5.48998 32.148 5.48998 32.148C5.44482 32.1396 5.40206 32.1214 5.36475 32.0946C5.32745 32.0679 5.29651 32.0332 5.27416 31.9931C5.25181 31.9529 5.23859 31.9084 5.23545 31.8626C5.2323 31.8167 5.23931 31.7708 5.25598 31.728C5.12755 31.6992 5.01182 31.6298 4.92598 31.53C5.01598 31.44 5.12398 31.374 5.25598 31.35C5.17798 31.086 5.28598 30.96 5.51398 30.9C5.47295 30.9902 5.46242 31.0913 5.48398 31.188C5.84398 31.08 6.40198 31.248 6.40198 31.872C6.40198 32.496 5.96998 33.018 5.15998 32.892C5.35198 32.982 5.44798 33.168 5.47198 33.378C5.32198 33.318 5.15998 33.318 5.15998 33.318C5.25598 33.48 5.38798 33.618 5.38198 33.954C5.23198 33.882 5.08798 33.756 4.90198 33.834C5.20198 34.434 4.82998 35.25 3.88198 35.442C4.22998 35.034 4.39798 34.602 4.39798 34.164C4.39798 32.754 4.00798 32.52 4.00798 31.536C4.01415 31.3078 4.0745 31.0843 4.18403 30.884C4.29357 30.6837 4.44917 30.5123 4.63798 30.384V30.402C4.52187 30.3782 4.41212 30.33 4.31595 30.2607C4.21978 30.1914 4.13936 30.1026 4.07998 30C4.74837 29.8158 5.45494 29.822 6.11998 30.018C6.34242 30.0495 6.55496 30.1305 6.74189 30.2551C6.92882 30.3798 7.08537 30.5448 7.19998 30.738C7.31977 31.0113 7.38161 31.3066 7.38161 31.605C7.38161 31.9034 7.31977 32.1987 7.19998 32.472C6.82198 33.252 5.05798 37.008 4.50598 38.184C4.38598 38.436 4.31998 38.7 4.31998 38.988C4.31998 39.708 4.97998 39.96 5.35198 39.96C5.80198 39.96 6.26398 39.618 6.26398 39.192C6.26398 38.922 6.11398 38.754 5.90398 38.754C5.39398 38.754 5.42398 39.186 5.52598 39.462C5.20798 39.318 5.02798 39.066 5.07598 38.802C4.87909 38.7689 4.70041 38.6668 4.57198 38.514C4.69198 38.358 4.84798 38.238 5.07598 38.232C4.97398 37.818 5.25598 37.644 5.52598 37.548C5.44198 37.848 5.38198 38.202 5.90398 38.202C6.28198 38.202 6.57598 38.262 6.74998 38.514L6.79198 36.894C6.81598 36.408 6.14398 36.414 5.71198 36.564C5.87398 36.006 6.20398 35.7 6.97198 35.778C6.85431 35.7328 6.75389 35.6516 6.68496 35.546C6.61603 35.4405 6.5821 35.3159 6.58798 35.19C6.58798 34.734 6.95998 34.23 7.19998 34.08L7.31998 38.82V38.826Z" fill="#FFEC2D"/>
<path d="M7.19988 55.62C7.19988 55.62 7.77588 56.112 7.97388 55.866C8.28588 55.476 7.00188 53.526 7.00188 52.842C7.00188 51.714 7.75788 51.408 8.68188 51.252C9.30588 51.144 10.3199 51.294 10.3199 51.294C10.1279 51.552 10.0019 51.63 9.68388 51.648C10.0439 51.828 10.4039 52.236 10.4039 52.866C10.4039 53.832 10.0079 54.234 10.0079 55.326C10.0079 55.92 10.4999 56.7 10.4999 56.7C9.62388 56.61 9.19188 55.8 9.43788 55.152C9.37035 55.1386 9.30056 55.1419 9.23465 55.1618C9.16873 55.1817 9.10871 55.2175 9.05988 55.266C8.99988 55.086 9.09588 54.876 9.23388 54.696C9.12588 54.636 9.04188 54.672 8.87388 54.708C8.88588 54.528 8.99388 54.324 9.26988 54.138C8.47788 54.342 7.99788 53.796 7.99788 53.22C7.99788 52.782 8.29788 52.47 8.59788 52.47C8.69388 52.47 8.83788 52.512 8.91588 52.572C8.97588 52.452 8.93988 52.29 8.88588 52.17C9.10188 52.23 9.24588 52.362 9.14388 52.632C9.31188 52.644 9.44388 52.704 9.53388 52.812C9.44388 52.932 9.30588 52.992 9.14388 52.992C9.26388 53.244 9.12588 53.382 8.92788 53.496C8.92788 53.496 9.05388 52.992 8.73588 52.992C8.59188 52.992 8.45988 53.034 8.45988 53.25C8.45988 53.436 8.62188 53.694 8.99988 53.676C9.37188 53.658 9.67788 53.418 9.67788 52.818C9.67788 52.266 9.22788 51.99 8.63988 51.978C8.11188 51.954 7.70988 52.242 7.70988 52.788C7.70988 53.52 8.75988 55.176 8.75988 55.824C8.75988 56.31 8.32788 56.586 7.89588 56.586C7.34388 56.586 6.87588 56.034 6.87588 56.034L7.19988 55.626V55.62Z" fill="#FFEC2D"/>
<path d="M7.07993 42.474C7.07993 41.256 8.17193 40.632 9.02993 40.632C10.1819 40.632 10.7999 41.322 10.7999 42.228C10.7999 42.738 10.7039 43.062 10.4699 43.548L7.81793 49.05C7.72185 49.2814 7.68077 49.532 7.69793 49.782C7.69793 50.274 8.17793 50.676 8.67593 50.682C9.13193 50.7 9.63593 50.262 9.63593 49.764C9.63593 49.158 9.31793 48.888 8.99393 48.888C8.59793 48.888 8.44193 49.05 8.44193 49.332C8.44193 49.524 8.53193 49.608 8.66993 49.608C9.01193 49.608 8.90993 49.152 8.90993 49.152C8.95509 49.1604 8.99784 49.1786 9.03515 49.2054C9.07246 49.2321 9.10339 49.2668 9.12574 49.3069C9.14809 49.3471 9.16131 49.3916 9.16446 49.4374C9.1676 49.4833 9.16059 49.5292 9.14393 49.572C9.27236 49.6008 9.38808 49.6702 9.47393 49.77C9.38393 49.86 9.27593 49.926 9.14393 49.95C9.22193 50.214 9.11393 50.34 8.88593 50.4C8.92695 50.3098 8.93748 50.2087 8.91593 50.112C8.55593 50.22 7.99793 50.052 7.99793 49.428C7.99793 48.804 8.42993 48.282 9.23993 48.408C9.04793 48.318 8.95193 48.132 8.92793 47.922C9.07793 47.982 9.23993 47.982 9.23993 47.982C9.14393 47.82 9.01193 47.682 9.01793 47.346C9.16793 47.418 9.31193 47.544 9.49793 47.466C9.19793 46.866 9.56993 46.05 10.5179 45.858C10.1699 46.266 10.0019 46.698 10.0019 47.136C10.0019 48.546 10.3919 48.78 10.3919 49.764C10.3858 49.9922 10.3254 50.2157 10.2159 50.416C10.1063 50.6163 9.95074 50.7877 9.76193 50.916V50.898C9.87803 50.9218 9.98778 50.97 10.084 51.0393C10.1801 51.1086 10.2605 51.1974 10.3199 51.3C9.65154 51.4842 8.94496 51.478 8.27993 51.282C8.05748 51.2505 7.84494 51.1695 7.65801 51.0449C7.47108 50.9203 7.31454 50.7552 7.19993 50.562C7.08013 50.2887 7.01829 49.9934 7.01829 49.695C7.01829 49.3966 7.08013 49.1014 7.19993 48.828C7.57793 48.048 9.34193 44.292 9.89393 43.116C10.0139 42.864 10.0799 42.6 10.0799 42.312C10.0799 41.592 9.41993 41.34 9.04793 41.34C8.59793 41.34 8.13593 41.682 8.13593 42.108C8.13593 42.378 8.28593 42.546 8.49593 42.546C9.00593 42.546 8.97593 42.114 8.87393 41.838C9.19193 41.982 9.37193 42.234 9.32393 42.498C9.52081 42.5311 9.69949 42.6332 9.82793 42.786C9.70793 42.942 9.55193 43.062 9.32393 43.068C9.42593 43.482 9.14393 43.656 8.87393 43.752C8.95793 43.452 9.01793 43.098 8.49593 43.098C8.11793 43.098 7.82393 43.038 7.64993 42.786L7.60793 44.406C7.58393 44.892 8.25593 44.886 8.68793 44.736C8.52593 45.294 8.19593 45.6 7.42793 45.522C7.54559 45.5672 7.64601 45.6484 7.71494 45.754C7.78387 45.8595 7.8178 45.9841 7.81193 46.11C7.81193 46.566 7.43993 47.07 7.19993 47.22L7.07993 42.48V42.474Z" fill="#FFEC2D"/>
<path d="M7.07993 38.826C7.07993 40.044 8.17193 40.668 9.02993 40.668C10.1819 40.668 10.7999 39.978 10.7999 39.072C10.7999 38.562 10.7039 38.238 10.4699 37.752L7.81793 32.25C7.72185 32.0186 7.68077 31.768 7.69793 31.518C7.69793 31.026 8.17793 30.624 8.67593 30.618C9.13193 30.6 9.63593 31.038 9.63593 31.536C9.63593 32.142 9.31793 32.412 8.99393 32.412C8.59793 32.412 8.44193 32.25 8.44193 31.968C8.44193 31.776 8.53193 31.692 8.66993 31.692C9.01193 31.692 8.90993 32.148 8.90993 32.148C8.95509 32.1396 8.99784 32.1214 9.03515 32.0946C9.07246 32.0679 9.10339 32.0332 9.12574 31.9931C9.14809 31.9529 9.16131 31.9084 9.16446 31.8626C9.1676 31.8167 9.16059 31.7708 9.14393 31.728C9.27236 31.6992 9.38808 31.6298 9.47393 31.53C9.38393 31.44 9.27593 31.374 9.14393 31.35C9.22193 31.086 9.11393 30.96 8.88593 30.9C8.92695 30.9902 8.93748 31.0913 8.91593 31.188C8.55593 31.08 7.99793 31.248 7.99793 31.872C7.99793 32.496 8.42993 33.018 9.23993 32.892C9.04793 32.982 8.95193 33.168 8.92793 33.378C9.07793 33.318 9.23993 33.318 9.23993 33.318C9.14393 33.48 9.01193 33.618 9.01793 33.954C9.16793 33.882 9.31193 33.756 9.49793 33.834C9.19793 34.434 9.56993 35.25 10.5179 35.442C10.1699 35.034 10.0019 34.602 10.0019 34.164C10.0019 32.754 10.3919 32.52 10.3919 31.536C10.3858 31.3078 10.3254 31.0843 10.2159 30.884C10.1063 30.6837 9.95074 30.5123 9.76193 30.384V30.402C9.87803 30.3782 9.98778 30.33 10.084 30.2607C10.1801 30.1914 10.2605 30.1026 10.3199 30C9.65154 29.8158 8.94496 29.822 8.27993 30.018C8.05748 30.0495 7.84494 30.1305 7.65801 30.2551C7.47108 30.3798 7.31454 30.5448 7.19993 30.738C7.08013 31.0113 7.01829 31.3066 7.01829 31.605C7.01829 31.9034 7.08013 32.1987 7.19993 32.472C7.57793 33.252 9.34193 37.008 9.89393 38.184C10.0139 38.436 10.0799 38.7 10.0799 38.988C10.0799 39.708 9.41993 39.96 9.04793 39.96C8.59793 39.96 8.13593 39.618 8.13593 39.192C8.13593 38.922 8.28593 38.754 8.49593 38.754C9.00593 38.754 8.97593 39.186 8.87393 39.462C9.19193 39.318 9.37193 39.066 9.32393 38.802C9.52081 38.7689 9.69949 38.6668 9.82793 38.514C9.70793 38.358 9.55193 38.238 9.32393 38.232C9.42593 37.818 9.14393 37.644 8.87393 37.548C8.95793 37.848 9.01793 38.202 8.49593 38.202C8.11793 38.202 7.82393 38.262 7.64993 38.514L7.60793 36.894C7.58393 36.408 8.25593 36.414 8.68793 36.564C8.52593 36.006 8.19593 35.7 7.42793 35.778C7.54559 35.7328 7.64601 35.6516 7.71494 35.546C7.78387 35.4405 7.8178 35.3159 7.81193 35.19C7.81193 34.734 7.43993 34.23 7.19993 34.08L7.07993 38.82V38.826Z" fill="#FFEC2D"/>
</g>
<defs>
<clipPath id="clip0_12_160">
<rect width="80" height="60" fill="white"/>
</clipPath>
</defs>
</svg>
