<svg width="24" height="24" viewBox="0 0 24 24" fill="none" xmlns="http://www.w3.org/2000/svg">
<path d="M4.42 20.579C4.13948 20.5785 3.87207 20.4602 3.683 20.253C3.49045 20.0475 3.39477 19.7695 3.42 19.489L3.665 16.795L14.983 5.481L18.52 9.017L7.205 20.33L4.511 20.575C4.48 20.578 4.449 20.579 4.42 20.579ZM19.226 8.31L15.69 4.774L17.811 2.653C17.9986 2.46522 18.2531 2.35971 18.5185 2.35971C18.7839 2.35971 19.0384 2.46522 19.226 2.653L21.347 4.774C21.5348 4.96157 21.6403 5.21609 21.6403 5.4815C21.6403 5.74691 21.5348 6.00143 21.347 6.189L19.227 8.309L19.226 8.31Z" fill="#29183B"/>
</svg>
