<svg width="72" height="40" viewBox="0 0 72 40" fill="none" xmlns="http://www.w3.org/2000/svg">
<rect x="1.16666" y="0.833333" width="70" height="38.3333" rx="19.1667" stroke="#9A41FE" stroke-width="1.66667"/>
<path d="M37 27.5H33.6667V17.5H37V19.1667C37.7105 18.2627 38.788 17.7238 39.9375 17.6975C42.0047 17.709 43.6727 19.3911 43.6667 21.4583V27.5H40.3333V21.875C40.2 20.9439 39.4015 20.253 38.4608 20.255C38.0494 20.268 37.661 20.4481 37.3854 20.7539C37.1097 21.0596 36.9705 21.4644 37 21.875V27.5ZM32 27.5H28.6667V17.5H32V27.5ZM30.3333 15.8333C29.4129 15.8333 28.6667 15.0871 28.6667 14.1667C28.6667 13.2462 29.4129 12.5 30.3333 12.5C31.2538 12.5 32 13.2462 32 14.1667C32 14.6087 31.8244 15.0326 31.5118 15.3452C31.1993 15.6577 30.7754 15.8333 30.3333 15.8333Z" fill="#9A41FE"/>
</svg>
