<svg width="80" height="60" viewBox="0 0 80 60" fill="none" xmlns="http://www.w3.org/2000/svg">
<g clip-path="url(#clip0_12_144)">
<path d="M0 0H80V60H0V0Z" fill="#CE1720"/>
<mask id="mask0_12_144" style="mask-type:luminance" maskUnits="userSpaceOnUse" x="0" y="0" width="15" height="60">
<path d="M0.625 0H13.8463V40.5331H14.3751V59.4663L13.8463 59.9996H0.625V0Z" fill="white"/>
</mask>
<g mask="url(#mask0_12_144)">
<path d="M3.00487 0V0.933327H2.40991V1.86665H1.68274V2.93331H1.15389V3.79998H0.0961914V1.59999H1.15389V0.399997H0.0961914V0H3.00487ZM4.72363 5.1333V6.13329H4.19478V6.93329H3.66593V6.13329H3.13708V5.1333H2.60823V3.79998H3.13708V2.79998H3.66593V1.99999H4.19478V2.79998H4.72363V3.79998H5.25248V5.1333H4.72363ZM3.59982 5.06663H4.26089V3.86664H3.59982V5.06663ZM1.88106 12.1999H2.40991V10.9999H1.88106V12.1999ZM5.4508 12.1999H5.97965V10.9999H5.4508V12.1999ZM0.0961914 20.3332H1.02168V21.1999H1.41832V22.2665H2.01327V23.2665H2.80655V22.2665H3.4015V21.1999H3.93035V20.3332H3.13708V19.3332H4.52531V19.9999H5.38469V21.1332H6.11186V22.3999H5.58301V23.3332H5.12027V24.1998H4.72363V25.1332H4.12867V25.9332H3.66593V26.6665H3.07097V27.5998H2.21159V26.5998H1.61664V25.6665H1.15389V25.0665H0.0961914V23.5332H1.15389V22.1999H0.0961914V20.3332Z" fill="white"/>
<path d="M11.4664 0V0.933327H12.0614V1.86665H12.7886V2.93331H13.3174V3.79998H14.3751V1.59999H13.3174V0.399997H14.3751V0H11.4664ZM9.74768 5.1333V6.13329H10.2765V6.93329H10.8054V6.13329H11.3342V5.1333H11.8631V3.79998H11.3342V2.79998H10.8054V1.99999H10.2765V2.79998H9.74768V3.79998H9.21883V5.1333H9.74768ZM10.8715 5.06663H10.2104V3.86664H10.8715V5.06663ZM12.5903 12.1999H12.0614V10.9999H12.5903V12.1999ZM9.02052 12.1999H8.49167V10.9999H9.02052V12.1999ZM14.3751 20.3332H13.4496V21.1999H13.053V22.2665H12.458V23.2665H11.6648V22.2665H11.0698V21.1999H10.541V20.3332H11.3342V19.3332H9.946V19.9999H9.08662V21.1332H8.35945V22.3999H8.8883V23.3332H9.35105V24.1998H9.74768V25.1332H10.3426V25.9332H10.8054V26.6665H11.4003V27.5998H12.2597V26.5998H12.8547V25.6665H13.3174V25.0665H14.3751V23.5332H13.3174V22.1999H14.3751V20.3332Z" fill="white"/>
<path d="M6.97124 0V2.13332H7.50009V0H9.61549V0.933327H9.08664V1.86665H8.29337V2.93331H7.76452V3.79998H6.70682V2.93331H6.17797V1.86665H5.38469V0.933327H4.85584V0H6.97124ZM6.83903 18.2666V17.5332H6.44239V16.6666H5.97965V15.7332H5.4508V14.7999H4.92195V14.1332H4.32699V13.1999H3.53372V14.1332H2.93876V14.7999H2.47602V15.7332H1.94717V16.6666H1.55053V17.5332H1.15389V18.6665H0.0961914V15.7332H1.15389V14.3999H0.0961914V12.1999H1.15389V13.1333H1.81495V14.0666H2.47602V13.1333H3.13708V12.1999H3.66593V10.9999H3.13708V10.0666H2.47602V9.13328H1.81495V10.0666H1.15389V10.9999H0.0961914V8.26661H1.15389V6.99996H0.0961914V5.1333H1.15389V5.99996H1.68274V7.06662H2.40991V7.93328H3.00487V8.93328H3.46761V9.73327H4.3931V8.93328H4.85584V7.93328H5.4508V7.06662H6.17797V5.99996H6.70682V5.1333H7.76452V5.99996H8.29337V7.06662H9.02054V7.93328H9.61549V8.93328H10.0782V9.73327H11.0037V8.93328H11.4665V7.93328H12.0614V7.06662H12.7886V5.99996H13.3174V5.1333H14.3751V6.99996H13.3174V8.26661H14.3751V10.9999H13.3174V10.0666H12.6564V9.13328H11.9953V10.0666H11.3343V10.9999H10.8054V12.1999H11.3343V13.1333H11.9953V14.0666H12.6564V13.1333H13.3174V12.1999H14.3751V14.3999H13.3174V15.7332H14.3751V18.6665H13.3174V17.5332H12.9208V16.6666H12.5242V15.7332H11.9953V14.7999H11.5326V14.1332H10.9376V13.1999H10.1443V14.1332H9.54939V14.7999H9.02054V15.7332H8.49169V16.6666H8.02894V17.5332H7.6323V18.2666H6.83903ZM6.97124 7.13329V8.93328H7.50009V7.13329H6.97124ZM6.70682 10.9999V10.0666H6.04575V9.13328H5.38469V10.0666H4.72363V10.9999H4.19478V12.1999H4.72363V13.1333H5.38469V14.0666H6.04575V13.1333H6.70682V12.1999H7.76452V13.1333H8.42558V14.0666H9.08664V13.1333H9.7477V12.1999H10.2766V10.9999H9.7477V10.0666H9.08664V9.13328H8.42558V10.0666H7.76452V10.9999H6.70682ZM6.97124 14.0666V15.8666H7.50009V14.0666H6.97124Z" fill="white"/>
<path d="M3.00487 59.9996V59.0663H2.40991V58.133H1.68274V57.0663H1.15389V56.1997H0.0961914V58.3996H1.15389V59.5996H0.0961914V59.9996H3.00487ZM4.72363 54.8663V53.8663H4.19478V53.0663H3.66593V53.8663H3.13708V54.8663H2.60823V56.1997H3.13708V57.1996H3.66593V57.9996H4.19478V57.1996H4.72363V56.1997H5.25248V54.8663H4.72363ZM3.59982 54.933H4.26089V56.133H3.59982V54.933ZM1.88106 47.7997H2.40991V48.9997H1.88106V47.7997ZM5.4508 47.7997H5.97965V48.9997H5.4508V47.7997ZM0.0961914 39.6664H1.02168V38.7998H1.41832V37.7331H2.01327V36.7331H2.80655V37.7331H3.4015V38.7998H3.93035V39.6664H3.13708V40.6664H4.52531V39.9998H5.38469V38.8664H6.11186V37.5998H5.58301V36.6664H5.12027V35.7998H4.72363V34.8665H4.12867V34.0665H3.66593V33.3331H3.07097V32.3998H2.21159V33.3998H1.61664V34.3331H1.15389V34.9331H0.0961914V36.4664H1.15389V37.7998H0.0961914V39.6664Z" fill="white"/>
<path d="M11.4664 59.9996V59.0663H12.0614V58.133H12.7886V57.0663H13.3174V56.1997H14.3751V58.3996H13.3174V59.5996H14.3751V59.9996H11.4664ZM9.74768 54.8663V53.8663H10.2765V53.0663H10.8054V53.8663H11.3342V54.8663H11.8631V56.1997H11.3342V57.1996H10.8054V57.9996H10.2765V57.1996H9.74768V56.1997H9.21883V54.8663H9.74768ZM10.8715 54.933H10.2104V56.133H10.8715V54.933ZM12.5903 47.7997H12.0614V48.9997H12.5903V47.7997ZM9.02052 47.7997H8.49167V48.9997H9.02052V47.7997ZM14.3751 39.6664H13.4496V38.7998H13.053V37.7331H12.458V36.7331H11.6648V37.7331H11.0698V38.7998H10.541V39.6664H11.3342V40.6664H9.946V39.9998H9.08662V38.8664H8.35945V37.5998H8.8883V36.6664H9.35105V35.7998H9.74768V34.8665H10.3426V34.0665H10.8054V33.3331H11.4003V32.3998H12.2597V33.3998H12.8547V34.3331H13.3174V34.9331H14.3751V36.4664H13.3174V37.7998H14.3751V39.6664Z" fill="white"/>
<path d="M6.97124 59.9996V57.8663H7.50009V59.9996H9.61549V59.0663H9.08664V58.133H8.29337V57.0663H7.76452V56.1997H6.70682V57.0663H6.17797V58.133H5.38469V59.0663H4.85584V59.9996H6.97124ZM6.83903 41.7331V42.4664H6.44239V43.3331H5.97965V44.2664H5.4508V45.1997H4.92195V45.8664H4.32699V46.7997H3.53372V45.8664H2.93876V45.1997H2.47602V44.2664H1.94717V43.3331H1.55053V42.4664H1.15389V41.3331H0.0961914V44.2664H1.15389V45.5997H0.0961914V47.7997H1.15389V46.8664H1.81495V45.933H2.47602V46.8664H3.13708V47.7997H3.66593V48.9997H3.13708V49.933H2.47602V50.8664H1.81495V49.933H1.15389V48.9997H0.0961914V51.733H1.15389V52.9997H0.0961914V54.8663H1.15389V53.9997H1.68274V52.933H2.40991V52.0663H3.00487V51.0663H3.46761V50.2664H4.3931V51.0663H4.85584V52.0663H5.4508V52.933H6.17797V53.9997H6.70682V54.8663H7.76452V53.9997H8.29337V52.933H9.02054V52.0663H9.61549V51.0663H10.0782V50.2664H11.0037V51.0663H11.4665V52.0663H12.0614V52.933H12.7886V53.9997H13.3174V54.8663H14.3751V52.9997H13.3174V51.733H14.3751V48.9997H13.3174V49.933H12.6564V50.8664H11.9953V49.933H11.3343V48.9997H10.8054V47.7997H11.3343V46.8664H11.9953V45.933H12.6564V46.8664H13.3174V47.7997H14.3751V45.5997H13.3174V44.2664H14.3751V41.3331H13.3174V42.4664H12.9208V43.3331H12.5242V44.2664H11.9953V45.1997H11.5326V45.8664H10.9376V46.7997H10.1443V45.8664H9.54939V45.1997H9.02054V44.2664H8.49169V43.3331H8.02894V42.4664H7.6323V41.7331H6.83903ZM6.97124 52.8663V51.0663H7.50009V52.8663H6.97124ZM6.70682 48.9997V49.933H6.04575V50.8664H5.38469V49.933H4.72363V48.9997H4.19478V47.7997H4.72363V46.8664H5.38469V45.933H6.04575V46.8664H6.70682V47.7997H7.76452V46.8664H8.42558V45.933H9.08664V46.8664H9.7477V47.7997H10.2766V48.9997H9.7477V49.933H9.08664V50.8664H8.42558V49.933H7.76452V48.9997H6.70682ZM6.97124 45.933V44.1331H7.50009V45.933H6.97124Z" fill="white"/>
<path d="M0.0961914 27.1998H1.15389V28.1332H1.61664V28.6665H2.14549V29.5998H2.60823V30.3998H2.14549V31.3331H1.61664V31.8665H1.15389V32.7998H0.0961914V27.1998ZM14.3751 27.1998V32.7998H13.3174V31.8665H12.8547V31.3331H12.3258V30.3998H11.8631V29.5998H12.3258V28.6665H12.8547V28.1332H13.3174V27.1998H14.3751ZM4.72363 30.5998H5.25248V29.3998H4.72363V30.5998ZM9.7477 30.5998V29.3998H9.21885V30.5998H9.7477ZM6.97124 26.6665H7.50009V25.4665H6.97124V26.6665ZM6.97124 33.3331V34.5331H7.50009V33.3331H6.97124ZM3.66593 28.3332H4.59142V27.5998H5.25248V26.9332H5.58301V26.2665H5.97965V25.3332H6.5085V24.3998H6.77292V23.5332H7.69841V24.3998H7.96284V25.3332H8.49169V26.2665H8.88832V26.9332H9.21885V27.5998H9.87992V28.3332H10.8054V31.6665H9.87992V32.3998H9.21885V33.0665H8.88832V33.7331H8.49169V34.6664H7.96284V35.5998H7.69841V36.4664H6.77292V35.5998H6.5085V34.6664H5.97965V33.7331H5.58301V33.0665H5.25248V32.3998H4.59142V31.6665H3.66593V28.3332ZM6.97124 28.9332V27.9332H6.44239V27.2665H5.91354V28.9332H6.44239V29.5331H6.77292V30.4665H6.44239V31.0665H5.91354V32.7331H6.44239V32.0665H6.97124V31.0665H7.50009V32.0665H8.02894V32.7331H8.55779V31.0665H8.02894V30.4665H7.69841V29.5331H8.02894V28.9332H8.55779V27.2665H8.02894V27.9332H7.50009V28.9332H6.97124Z" fill="white"/>
</g>
<path d="M13.75 40H80V60H13.75V40Z" fill="#007C30"/>
</g>
<defs>
<clipPath id="clip0_12_144">
<rect width="80" height="60" fill="white"/>
</clipPath>
</defs>
</svg>
